<?xml version="1.0" encoding="UTF-8"?>
<svg width="163px" height="32px" viewBox="0 0 163 32" version="1.1" xmlns="http://www.w3.org/2000/svg" xmlns:xlink="http://www.w3.org/1999/xlink">
    <!-- Generator: Sketch 55.2 (78181) - https://sketchapp.com -->
    <title>Group 6</title>
    <desc>Created with Sketch.</desc>
    <defs>
        <linearGradient x1="56.6657816%" y1="0%" x2="82.0541397%" y2="37.8635764%" id="linearGradient-1">
            <stop stop-color="#4285EB" offset="0%"></stop>
            <stop stop-color="#2EC7FF" offset="100%"></stop>
        </linearGradient>
        <linearGradient x1="60.8196864%" y1="0%" x2="52.2267677%" y2="108.456714%" id="linearGradient-2">
            <stop stop-color="#29CDFF" offset="0%"></stop>
            <stop stop-color="#148EFF" offset="37.8600687%"></stop>
            <stop stop-color="#0A60FF" offset="100%"></stop>
        </linearGradient>
        <linearGradient x1="57.922807%" y1="-12.9743587%" x2="36.6106082%" y2="117.391248%" id="linearGradient-3">
            <stop stop-color="#FA816E" offset="0%"></stop>
            <stop stop-color="#F74A5C" offset="41.472606%"></stop>
            <stop stop-color="#F51D2C" offset="100%"></stop>
        </linearGradient>
        <linearGradient x1="68.0947076%" y1="-35.6905737%" x2="30.4759997%" y2="114.942679%" id="linearGradient-4">
            <stop stop-color="#FA8E7D" offset="0%"></stop>
            <stop stop-color="#F74A5C" offset="51.2635191%"></stop>
            <stop stop-color="#F51D2C" offset="100%"></stop>
        </linearGradient>
    </defs>
    <g id="Symbols" stroke="none" stroke-width="1" fill="none" fill-rule="evenodd">
        <g id="回顾" transform="translate(-144.000000, -16.000000)">
            <g id="Group-3" transform="translate(-1.000000, 0.000000)">
                <g id="Group-6" transform="translate(145.000000, 16.000000)">
                    <g id="Group-27-Copy-3">
                        <g id="Group-25" fill-rule="nonzero">
                            <g id="2">
                                <path d="M14.6285975,0.668244516 L0.667630849,14.6420436 C-0.0829339503,15.3932983 -0.0829339503,16.6067017 0.667630849,17.3579564 L14.6285975,31.3317555 C15.3791623,32.0830102 16.5914513,32.0830102 17.3420161,31.3317555 L23.1956499,25.4727411 C23.8678355,24.7999377 23.8678355,23.7091078 23.1956499,23.0363044 C22.5234644,22.363501 21.4336362,22.363501 20.7614507,23.0363044 L16.3238577,27.4779763 C16.1370433,27.6649624 15.8535145,27.6649624 15.6667001,27.4779763 L4.51787104,16.3188995 C4.33105665,16.1319134 4.33105665,15.848124 4.51787104,15.6611379 L15.6667001,4.50206116 C15.8535145,4.31507506 16.1370433,4.31507506 16.3238577,4.50206116 L20.7614507,8.94373303 C21.4336362,9.61653645 22.5234644,9.61653645 23.1956499,8.94373303 C23.8678355,8.2709296 23.8678355,7.18009972 23.1956499,6.50729629 L17.3426612,0.648919347 C16.5890147,-0.0860778953 15.3762824,-0.0801276649 14.6285975,0.668244516 Z" id="Shape" fill="url(#linearGradient-1)"></path>
                                <path d="M14.6285975,0.668244516 L0.667630849,14.6420436 C-0.0829339503,15.3932983 -0.0829339503,16.6067017 0.667630849,17.3579564 L14.6285975,31.3317555 C15.3791623,32.0830102 16.5914513,32.0830102 17.3420161,31.3317555 L23.1956499,25.4727411 C23.8678355,24.7999377 23.8678355,23.7091078 23.1956499,23.0363044 C22.5234644,22.363501 21.4336362,22.363501 20.7614507,23.0363044 L16.3238577,27.4779763 C16.1370433,27.6649624 15.8535145,27.6649624 15.6667001,27.4779763 L4.51787104,16.3188995 C4.33105665,16.1319134 4.33105665,15.848124 4.51787104,15.6611379 L15.6667001,4.50206116 C16.1318618,4.10034937 16.8908236,3.28669184 18.0053626,3.0963918 C18.8336683,2.95496417 19.7392314,3.26624383 20.7220519,4.03023078 C20.0649747,3.37254867 18.9385111,2.24544486 17.3426612,0.648919347 C16.5890147,-0.0860778953 15.3762824,-0.0801276649 14.6285975,0.668244516 Z" id="Shape" fill="url(#linearGradient-2)"></path>
                            </g>
                            <path d="M24.5469181,21.7367326 C25.2191037,22.409536 26.3089318,22.409536 26.9811174,21.7367326 L31.2990449,17.4148361 C32.0496097,16.6635814 32.0496097,15.4501781 31.2991327,14.6990111 L26.9435642,10.3548985 C26.2697872,9.68289373 25.179613,9.6838628 24.5070296,10.3570644 C23.8348441,11.0298678 23.8348441,12.1206977 24.5070296,12.7935011 L27.4488047,15.7379802 C27.6356191,15.9249663 27.6356191,16.2087558 27.4488047,16.3957419 L24.5469181,19.3002959 C23.8747325,19.9730993 23.8747325,21.0639292 24.5469181,21.7367326 Z" id="Shape" fill="url(#linearGradient-3)"></path>
                        </g>
                        <ellipse id="Combined-Shape" fill="url(#linearGradient-4)" cx="16.0551116" cy="16.069869" rx="3.76946099" ry="3.77292576"></ellipse>
                    </g>
                    <path d="M49.9512812,21.9499292 L48.1532385,21.9499292 L52.5321376,10.0487694 L54.145105,10.0487694 L58.5240041,21.9499292 L56.7259614,21.9499292 L55.5583573,18.6176045 L51.1188853,18.6176045 L49.9512812,21.9499292 Z M51.6361058,17.1249166 L55.0411368,17.1249166 L53.3386213,12.2637763 L51.6361058,17.1249166 Z M64.2319651,12.8404991 C66.2531623,12.8404991 67.3965749,14.0533347 67.3965749,16.188961 L67.3965749,21.9499292 L65.7538767,21.9499292 L65.7538767,16.5278415 C65.7538767,15.0316781 65.1485531,14.3493241 63.8373954,14.3493241 C62.5138422,14.3493241 61.6873934,15.2299742 61.6873934,16.673076 L61.6873934,21.9499292 L60.0446952,21.9499292 L60.0446952,12.9938022 L61.6229738,12.9938022 L61.6229738,14.2084236 C62.1228684,13.3143413 63.0010404,12.8404991 64.2319651,12.8404991 Z M70.2213716,12.9938022 L70.2213716,10.7426675 L71.8640698,10.7426675 L71.8640698,12.9938022 L73.7966559,12.9938022 L73.7966559,14.4138728 L71.8640698,14.4138728 L71.8640698,19.206611 C71.8640698,20.1623619 72.1958201,20.5379272 73.0236215,20.5379272 C73.2593454,20.5379272 73.3901277,20.5311724 73.6557909,20.5062165 L73.7966559,20.4929839 L73.7966559,21.9130049 L73.6902072,21.9318277 C73.3786912,21.9869113 73.115367,22.0144779 72.8545202,22.0144779 C70.9964543,22.0144779 70.2213716,21.2960893 70.2213716,19.5616287 L70.2213716,14.4138728 L68.8202467,14.4138728 L68.8202467,12.9938022 L70.2213716,12.9938022 Z M84.5273404,10.0487694 C88.0489991,10.0487694 90.1398926,12.264983 90.1398926,15.995315 C90.1398926,19.7356847 88.0552035,21.9499292 84.5273404,21.9499292 L80.4125424,21.9499292 L80.4125424,10.0487694 L84.5273404,10.0487694 Z M82.1196602,20.3846241 L84.4307111,20.3846241 C86.9469458,20.3846241 88.4005651,18.7857862 88.4005651,16.0114522 C88.4005651,13.2328081 86.9342246,11.6140745 84.4307111,11.6140745 L82.1196602,11.6140745 L82.1196602,20.3846241 Z M95.7749916,14.3251183 C94.50569,14.3251183 93.6060217,15.2231463 93.4594089,16.6246645 L97.9682956,16.6246645 C97.8899557,15.2231337 97.0367171,14.3251183 95.7749916,14.3251183 Z M95.8233063,20.618613 C96.8868544,20.618613 97.6031418,20.2385285 97.9454485,19.5144325 L97.9803518,19.4405999 L99.6169514,19.4405999 L99.5709378,19.6046303 C99.1315045,21.1711323 97.7282298,22.1032323 95.7910965,22.1032323 C93.312242,22.1032323 91.7487705,20.3038475 91.7487705,17.4799343 C91.7487705,14.6728967 93.3357061,12.8404991 95.7910965,12.8404991 C98.2050824,12.8404991 99.6884785,14.5665313 99.6884785,17.3427684 L99.6884785,18.0043922 L93.4511921,18.0043922 C93.5435385,19.6223753 94.4481282,20.618613 95.8233063,20.618613 Z M101.377881,15.5031315 C101.377881,13.979954 102.834175,12.8404991 104.743802,12.8404991 C106.622553,12.8404991 107.946401,13.7853079 108.140858,15.2847814 L108.159757,15.4305142 L106.545268,15.4305142 L106.519713,15.3347707 C106.345047,14.6803615 105.698477,14.2767068 104.735749,14.2767068 C103.745377,14.2767068 103.028632,14.7715518 103.028632,15.4466514 C103.028632,15.9611701 103.450867,16.2986078 104.435781,16.5395023 L105.772535,16.8622575 C107.489522,17.2775332 108.294929,18.046125 108.294929,19.3437769 C108.294929,20.9592538 106.755264,22.1032323 104.687435,22.1032323 C102.697209,22.1032323 101.306065,21.1352898 101.14508,19.6155981 L101.129961,19.4728743 L102.792646,19.4728743 L102.821238,19.562773 C103.045015,20.2663785 103.71302,20.6750931 104.735749,20.6750931 C105.845469,20.6750931 106.611968,20.1594427 106.611968,19.4486685 C106.611968,18.9218708 106.207054,18.5608286 105.333388,18.3476836 L103.843766,17.9846166 C102.146549,17.5720904 101.377881,16.8158486 101.377881,15.5031315 Z M110.217852,21.9499292 L110.217852,12.9938022 L111.86055,12.9938022 L111.86055,21.9499292 L110.217852,21.9499292 Z M111.039201,11.4849771 C110.436584,11.4849771 109.944069,10.9914748 109.944069,10.3876499 C109.944069,9.7838249 110.436584,9.29032258 111.039201,9.29032258 C111.641818,9.29032258 112.134333,9.7838249 112.134333,10.3876499 C112.134333,10.9914748 111.641818,11.4849771 111.039201,11.4849771 Z M117.858009,20.3362126 C119.374485,20.3362126 120.305952,19.1928796 120.305952,17.3427684 C120.305952,15.4962914 119.369401,14.3493241 117.858009,14.3493241 C116.356849,14.3493241 115.474486,15.4732552 115.474486,17.3427684 C115.474486,19.2122816 116.356849,20.3362126 117.858009,20.3362126 Z M120.338161,12.9938022 L121.91644,12.9938022 L121.91644,21.974135 C121.91644,23.9987919 120.352799,25.2903226 117.922429,25.2903226 C115.808724,25.2903226 114.379102,24.3353314 114.155239,22.7996522 L114.133699,22.651896 L115.85226,22.651896 L115.874206,22.7537478 C116.015987,23.4117343 116.757565,23.8218405 117.922429,23.8218405 C119.409701,23.8218405 120.273742,23.1075269 120.273742,21.9015177 L120.273742,20.4369106 C119.686337,21.3240265 118.712585,21.8208319 117.552016,21.8208319 C115.251664,21.8208319 113.783473,20.0437025 113.783473,17.3427684 C113.783473,14.6436161 115.266118,12.8404991 117.552016,12.8404991 C118.724292,12.8404991 119.776235,13.3779521 120.338161,14.2485916 L120.338161,12.9938022 Z M128.429255,12.8404991 C130.450452,12.8404991 131.593865,14.0533347 131.593865,16.188961 L131.593865,21.9499292 L129.951167,21.9499292 L129.951167,16.5278415 C129.951167,15.0316781 129.345843,14.3493241 128.034686,14.3493241 C126.711132,14.3493241 125.884683,15.2299742 125.884683,16.673076 L125.884683,21.9499292 L124.241985,21.9499292 L124.241985,12.9938022 L125.820264,12.9938022 L125.820264,14.2084236 C126.320159,13.3143413 127.198331,12.8404991 128.429255,12.8404991 Z M140.351701,17.794609 L140.351701,21.9499292 L138.644583,21.9499292 L138.644583,10.0487694 L143.162003,10.0487694 C145.429136,10.0487694 147.011071,11.6533538 147.011071,13.9458949 C147.011071,16.1937895 145.401202,17.794609 143.145899,17.794609 L140.351701,17.794609 Z M140.351701,11.5979373 L140.351701,16.2454411 L142.783539,16.2454411 C144.366955,16.2454411 145.263691,15.4118135 145.263691,13.9458949 C145.263691,12.4211128 144.396741,11.5979373 142.783539,11.5979373 L140.351701,11.5979373 Z M150.496168,13.8883168 C150.96732,13.2595884 151.912043,12.8404991 152.903848,12.8404991 C153.139372,12.8404991 153.43368,12.8574194 153.613766,12.8820258 L153.725197,12.8972514 L153.725197,14.5688838 L153.560963,14.5218658 C153.457298,14.4921877 152.963351,14.4461471 152.710589,14.4461471 C151.458489,14.4461471 150.560587,15.2787067 150.560587,16.4310185 L150.560587,21.9499292 L148.917889,21.9499292 L148.917889,12.9938022 L150.496168,12.9938022 L150.496168,13.8883168 Z M158.869097,22.1032323 C156.31893,22.1032323 154.738194,20.3279687 154.738194,17.4718657 C154.738194,14.6105804 156.316365,12.8404991 158.869097,12.8404991 C161.421829,12.8404991 163,14.6105804 163,17.4718657 C163,20.3279687 161.419264,22.1032323 158.869097,22.1032323 Z M158.869097,20.5944073 C160.426653,20.5944073 161.308987,19.4719641 161.308987,17.4718657 C161.308987,15.4666996 160.42904,14.3493241 158.869097,14.3493241 C157.309154,14.3493241 156.429207,15.4666996 156.429207,17.4718657 C156.429207,19.4719641 157.311541,20.5944073 158.869097,20.5944073 Z" id="Ant-Design-Pro" fill="#FFFFFF" fill-rule="nonzero"></path>
                </g>
            </g>
        </g>
    </g>
</svg>